<svg width="318" height="101" viewBox="0 0 318 101" fill="none" xmlns="http://www.w3.org/2000/svg">
<path d="M2.41626 19.1106C27.1998 5.44391 93.4782 -13.6894 160.323 19.1106C227.168 51.9106 292.502 32.7772 316.814 19.1106" stroke="#E2F2F9" stroke-dasharray="1 5"/>
<path d="M2.41626 55.1106C27.1998 41.4439 93.4782 22.3106 160.323 55.1106C227.168 87.9106 292.502 68.7772 316.814 55.1106" stroke="#E2F2F9" stroke-linecap="round" stroke-dasharray="1 5"/>
<path d="M1 28.1106C25.7836 14.4439 92.0619 -4.68942 158.907 28.1106C225.752 60.9106 291.086 41.7772 315.397 28.1106" stroke="#E2F2F9" stroke-linecap="round" stroke-dasharray="1 5"/>
<path d="M1 64.1106C25.7836 50.4439 92.0619 31.3106 158.907 64.1106C225.752 96.9106 291.086 77.7772 315.397 64.1106" stroke="#E2F2F9" stroke-linecap="round" stroke-dasharray="1 5"/>
<path d="M1 37.1106C25.7836 23.4439 92.0619 4.31058 158.907 37.1106C225.752 69.9106 291.086 50.7772 315.397 37.1106" stroke="#E2F2F9" stroke-linecap="round" stroke-dasharray="1 5"/>
<path d="M1 73.1106C25.7836 59.4439 92.0619 40.3106 158.907 73.1106C225.752 105.911 291.086 86.7772 315.397 73.1106" stroke="#E2F2F9" stroke-linecap="round" stroke-dasharray="1 5"/>
<path d="M1 46.1106C25.7836 32.4439 92.0619 13.3106 158.907 46.1106C225.752 78.9106 291.086 59.7772 315.397 46.1106" stroke="#E2F2F9" stroke-linecap="round" stroke-dasharray="1 5"/>
<path d="M1 82.1106C25.7836 68.4439 92.0619 49.3106 158.907 82.1106C225.752 114.911 291.086 95.7772 315.397 82.1106" stroke="#E2F2F9" stroke-dasharray="1 5"/>
</svg>
