<svg width="136" height="92" viewBox="0 0 136 92" fill="none" xmlns="http://www.w3.org/2000/svg">
<path d="M47.6514 81.0347C48.9018 78.8689 51.2127 77.5347 53.7136 77.5347L77.1307 77.5347C79.6315 77.5347 81.9424 78.8689 83.1929 81.0347L94.9014 101.314C96.1518 103.48 96.1518 106.149 94.9014 108.314L83.1929 128.594C81.9424 130.76 79.6315 132.094 77.1307 132.094L53.7136 132.094C51.2127 132.094 48.9018 130.76 47.6514 128.594L35.9429 108.314C34.6924 106.149 34.6924 103.48 35.9429 101.314L47.6514 81.0347Z" fill="#E2F2F9"/>
<path d="M108.273 46.0347C109.524 43.8689 111.835 42.5347 114.335 42.5347L137.753 42.5347C140.253 42.5347 142.564 43.8689 143.815 46.0347L155.523 66.3145C156.774 68.4803 156.774 71.1487 155.523 73.3145L143.815 93.5943C142.564 95.7601 140.253 97.0943 137.753 97.0943L114.335 97.0943C111.835 97.0943 109.524 95.7601 108.273 93.5943L96.5647 73.3145C95.3143 71.1487 95.3143 68.4803 96.5647 66.3145L108.273 46.0347Z" fill="#E2F2F9"/>
<path d="M12.2687 73.75C13.5191 71.5842 15.83 70.25 18.3309 70.25L26.748 70.25C29.2488 70.25 31.5597 71.5842 32.8101 73.75L37.0187 81.0394C38.2691 83.2052 38.2691 85.8736 37.0187 88.0394L32.8101 95.3288C31.5597 97.4946 29.2488 98.8288 26.748 98.8288L18.3309 98.8288C15.83 98.8288 13.5191 97.4946 12.2687 95.3288L8.06015 88.0394C6.80972 85.8736 6.80972 83.2052 8.06014 81.0394L12.2687 73.75Z" fill="#E2F2F9"/>
<path d="M66.5396 41.75C67.4328 40.203 69.0834 39.25 70.8698 39.25L81.5963 39.25C83.3826 39.25 85.0332 40.203 85.9264 41.75L91.2896 51.0394C92.1828 52.5864 92.1828 54.4924 91.2896 56.0394L85.9264 65.3288C85.0332 66.8758 83.3826 67.8288 81.5963 67.8288L70.8698 67.8288C69.0834 67.8288 67.4328 66.8758 66.5396 65.3288L61.1764 56.0394C60.2832 54.4924 60.2832 52.5864 61.1764 51.0394L66.5396 41.75Z" fill="#E2F2F9"/>
<path d="M120.233 10.75C121.126 9.20299 122.777 8.25 124.563 8.25L135.29 8.25C137.076 8.25 138.727 9.20299 139.62 10.75L144.983 20.0394C145.876 21.5864 145.876 23.4924 144.983 25.0394L139.62 34.3288C138.727 35.8758 137.076 36.8288 135.29 36.8288L124.563 36.8288C122.777 36.8288 121.126 35.8758 120.233 34.3288L114.87 25.0394C113.977 23.4924 113.977 21.5864 114.87 20.0394L120.233 10.75Z" fill="#E2F2F9"/>
<path d="M41.559 57.4819C41.9162 56.8631 42.5765 56.4819 43.291 56.4819L48.4816 56.4819C49.1961 56.4819 49.8564 56.8631 50.2137 57.4819L52.809 61.9771C53.1662 62.5959 53.1662 63.3583 52.809 63.9771L50.2137 68.4723C49.8564 69.0911 49.1961 69.4723 48.4816 69.4723L43.291 69.4723C42.5765 69.4723 41.9162 69.0911 41.559 68.4723L38.9637 63.9771C38.6064 63.3583 38.6064 62.5959 38.9637 61.9771L41.559 57.4819Z" fill="#E2F2F9"/>
<path d="M94.2523 24.75C94.6096 24.1312 95.2698 23.75 95.9844 23.75L101.175 23.75C101.889 23.75 102.55 24.1312 102.907 24.75L105.502 29.2452C105.86 29.864 105.86 30.6264 105.502 31.2452L102.907 35.7404C102.55 36.3592 101.889 36.7404 101.175 36.7404L95.9844 36.7404C95.2698 36.7404 94.6096 36.3592 94.2523 35.7404L91.657 31.2452C91.2997 30.6264 91.2997 29.864 91.657 29.2452L94.2523 24.75Z" fill="#E2F2F9"/>
</svg>
