<svg id="e97b8dcd-063c-4d05-b3a6-103c223a8012" data-name="Layer 1" xmlns="http://www.w3.org/2000/svg" xmlns:xlink="http://www.w3.org/1999/xlink" viewBox="0 0 500 500"><defs><style>.ad7a32d2-1217-4cbf-92d0-b0d722b6a622{fill:url(#a91c470a-af46-45fe-bf0a-27ad5ff027f2);}.bf9ae849-4d44-492b-841d-92dee7223b13{fill:url(#e40c94cd-e6b2-460b-8fa4-fed6bbd94cd1);}.e43168ac-8945-433f-bf46-adf6e84ca96a{fill:url(#a0487494-b8ef-41aa-ac27-38423ab15939);}.be12adfd-f318-4c16-94bf-81786758f738{fill:url(#bf0d8748-b65c-4ea3-832f-c7e3019aa269);}.a2d2ff10-23a1-4910-90c1-802802c3493f{fill:url(#eb4df60b-bb47-4e2a-aceb-a4498a471be9);}.e159c30d-1c10-460f-991c-fdde3f557bcb{fill:url(#b24c8e05-f724-41e1-a2b4-f2390f8a36f9);}.e7ad3090-17e9-4ad6-a75a-4a19732ca8fd{fill:url(#a9448c3b-3d40-4b85-a1a8-3b4545f3fa14);}.f2b0d1b7-6d44-4b7d-9804-e326f6841354{fill:url(#baa1c030-8922-40ef-a794-457c8b203c4a);}</style><linearGradient id="a91c470a-af46-45fe-bf0a-27ad5ff027f2" x1="228.52" y1="151.74" x2="304" y2="215.08" gradientUnits="userSpaceOnUse"><stop offset="0" stop-color="#50be9b"/><stop offset="1" stop-color="#1a85b9"/></linearGradient><linearGradient id="e40c94cd-e6b2-460b-8fa4-fed6bbd94cd1" x1="128.68" y1="134.21" x2="227.92" y2="134.21" xlink:href="#a91c470a-af46-45fe-bf0a-27ad5ff027f2"/><linearGradient id="a0487494-b8ef-41aa-ac27-38423ab15939" x1="80.63" y1="377.44" x2="294.08" y2="459" xlink:href="#a91c470a-af46-45fe-bf0a-27ad5ff027f2"/><linearGradient id="bf0d8748-b65c-4ea3-832f-c7e3019aa269" x1="155.27" y1="380.66" x2="210.19" y2="401.64" xlink:href="#a91c470a-af46-45fe-bf0a-27ad5ff027f2"/><linearGradient id="eb4df60b-bb47-4e2a-aceb-a4498a471be9" x1="92.34" y1="316.99" x2="305.79" y2="398.55" xlink:href="#a91c470a-af46-45fe-bf0a-27ad5ff027f2"/><linearGradient id="b24c8e05-f724-41e1-a2b4-f2390f8a36f9" x1="99.68" y1="297.79" x2="313.13" y2="379.35" xlink:href="#a91c470a-af46-45fe-bf0a-27ad5ff027f2"/><linearGradient id="a9448c3b-3d40-4b85-a1a8-3b4545f3fa14" x1="106.82" y1="279.11" x2="320.27" y2="360.67" xlink:href="#a91c470a-af46-45fe-bf0a-27ad5ff027f2"/><linearGradient id="baa1c030-8922-40ef-a794-457c8b203c4a" x1="86.6" y1="335.16" x2="297.69" y2="415.82" xlink:href="#a91c470a-af46-45fe-bf0a-27ad5ff027f2"/></defs><path class="ad7a32d2-1217-4cbf-92d0-b0d722b6a622" d="M479.21,162.57q-48.82,67.49-97.85,134.78C366,318.56,346,331.66,319,332.19c-24.87-.43-44.7-11.34-59.18-30.91-3.24-4.39-6.5-8.8-9.71-13.18l-6.73,9.25C228,318.56,208,331.66,181,332.19c-24.88-.43-44.68-11.34-59.16-30.91Q70.56,231.85,20.32,161.65c-11.88-16.44-8.67-35.73,6.93-46.92,14.66-10.53,34.31-6.91,46,8.77,12.18,16.36,24,33,36,49.47,21.89,29.92,54,42.49,84.39,37.72,20.85-3.26,40.88-14.63,56.33-34.15.94-1.2,1.86-2.45,2.8-3.7,11.75-16.26,23.5-32.55,35.43-48.68,12.11-16.31,31.55-20.11,46.64-9.38,15.88,11.32,18.61,30.81,6.32,47.79q-17.38,24-34.86,48.1c30.56,4.84,62.67-7.8,84.44-37.83,11.77-16.26,23.5-32.55,35.45-48.68,12.11-16.31,31.53-20.11,46.62-9.38C488.74,126.1,491.49,145.59,479.21,162.57Z"/><path class="bf9ae849-4d44-492b-841d-92dee7223b13" d="M177.49,183.91A49.71,49.71,0,0,0,179.2,84.5a49.73,49.73,0,0,0-50.49,47.92C127.7,160.42,149.18,183.09,177.49,183.91Z"/><path class="e43168ac-8945-433f-bf46-adf6e84ca96a" d="M108.33,379.21l-7.28,25.84c-2,7.2-6.37,10.46-13.57,10.46-8.53,0-12.61-4.5-13.58-10.46l-5.82-35.12a13.91,13.91,0,0,1-.21-2.22H81.1c0,.48.07,1.18.14,1.8l4.92,32c.14,1.1.69,1.59,1.66,1.59s1.39-.35,1.66-1.46l7.14-25.14c1.94-6.72,5.68-9.84,13.23-9.84s11,3.12,12.75,9.49l7,25.49c.27,1.11.83,1.46,1.66,1.46s1.45-.49,1.66-1.59l5.34-32a9.79,9.79,0,0,0,.13-1.8h13.1a14.55,14.55,0,0,1-.21,2.22l-6.23,35.19c-1.11,6.17-5.27,10.39-13.72,10.39-7.07,0-11.36-3.39-13.23-10.46l-6.72-25.84c-.28-1-.77-1.39-1.53-1.39S108.61,378.17,108.33,379.21Z"/><path class="be12adfd-f318-4c16-94bf-81786758f738" d="M205,373.87a20.72,20.72,0,0,0-4.35-3.08,26.13,26.13,0,0,0-12.95-3.08h-9.84c-7.57,0-13.18,2.37-17.33,6.16A23.62,23.62,0,0,0,159,406.93c4.31,4.69,10.47,7.62,18.86,7.62h9.84a26.41,26.41,0,0,0,13-3.06,21.5,21.5,0,0,0,5.81-4.56,23.25,23.25,0,0,0,6-15.8A23.5,23.5,0,0,0,205,373.87Zm-17.3,28.35h-9.84c-4.44,0-7.42-1.41-9.43-3.62a10.85,10.85,0,0,1-2.91-7.39,11.09,11.09,0,0,1,3.47-8.06c2-1.86,4.64-3,8.87-3h9.84c4.23,0,6.85,1.17,8.87,3a11.08,11.08,0,0,1,3.46,8.06,10.87,10.87,0,0,1-2.93,7.39C195.06,400.81,192.08,402.22,187.65,402.22Z"/><path class="a2d2ff10-23a1-4910-90c1-802802c3493f" d="M311.74,402.56v12H270.45c-3.67,0-5.89-1.25-7.27-3.05a8.24,8.24,0,0,1-1.73-5.06,8,8,0,0,1,2-5.12,18.19,18.19,0,0,1,3.25-2.56l25.15-17.67a.5.5,0,0,0,.21-.42.55.55,0,0,0-.56-.55H261.79v-12.4h40.39c3.53,0,5.47,1,6.86,2.49a7.69,7.69,0,0,1,2.15,5.13,8.81,8.81,0,0,1-.76,3.53c-.49,1.11-1.18,2.08-3.26,3.61l-25.29,18.84a.84.84,0,0,0-.41.62c0,.35.28.63.83.63Z"/><path class="e159c30d-1c10-460f-991c-fdde3f557bcb" d="M339,414.54c-8.38,0-14.55-2.91-18.84-7.62a23.59,23.59,0,0,1,1.52-33.05c4.16-3.81,9.77-6.16,17.32-6.16h9.84c7.55,0,13.16,2.35,17.32,6.16a23.59,23.59,0,0,1,1.52,33.05c-4.29,4.71-10.46,7.62-18.84,7.62Zm0-34.43c-4.23,0-6.86,1.18-8.87,3.05a11.06,11.06,0,0,0-3.46,8,10.94,10.94,0,0,0,2.91,7.42c2,2.21,5,3.6,9.42,3.6h9.84c4.43,0,7.41-1.39,9.42-3.6a10.94,10.94,0,0,0,2.91-7.42,11.06,11.06,0,0,0-3.46-8c-2-1.87-4.65-3.05-8.87-3.05Z"/><path class="e7ad3090-17e9-4ad6-a75a-4a19732ca8fd" d="M392.3,414.54H379.76V370.62q0-2.91,3.11-2.91h33.26c5.75,0,9.42,1.73,12,4.43a13.47,13.47,0,0,1,3.74,9.22c0,3.74-1.1,7.27-4.43,9.7,3.12,1.87,4.5,4.36,4.5,9.69v9.36a37.53,37.53,0,0,0,.21,4.43H419.45a23.35,23.35,0,0,1-.2-3.12v-9.35c0-3-1.46-4.16-5.13-4.16H392.3Zm22.17-27.3a4.26,4.26,0,0,0,3.53-1.52,3.88,3.88,0,0,0,.9-2.42,3.76,3.76,0,0,0-1-2.64,4.38,4.38,0,0,0-3.39-1.24H393.33a.94.94,0,0,0-1,1v6.78Z"/><path class="f2b0d1b7-6d44-4b7d-9804-e326f6841354" d="M219.74,380.12H255.3V367.71H212.68a7.1,7.1,0,0,0-4.68,1.4c6.36,4.39,10.64,12.4,10.64,21.59,0,9.43-4.49,17.64-11.13,21.94,1.08,1.26,2.78,1.91,5.12,1.91H255.3v-12H219.69c-.76,0-1.12-.41-1.12-1.25v-5.69h32a4.5,4.5,0,0,0,4.5-4.49h0a4.5,4.5,0,0,0-4.5-4.5h-32v-5.33A1.17,1.17,0,0,1,219.74,380.12Z"/></svg>