<svg width="19" height="19" viewBox="0 0 19 19" fill="none" xmlns="http://www.w3.org/2000/svg">
<path d="M13.5 0.971069C13.7652 0.971069 14.0196 1.07643 14.2071 1.26396C14.3946 1.4515 14.5 1.70585 14.5 1.97107V2.97107H16.5C17.0046 2.97091 17.4906 3.16148 17.8605 3.50457C18.2305 3.84766 18.4572 4.31791 18.495 4.82107L18.5 4.97107V16.9711C18.5002 17.4756 18.3096 17.9616 17.9665 18.3316C17.6234 18.7016 17.1532 18.9282 16.65 18.9661L16.5 18.9711H2.5C1.99542 18.9712 1.50943 18.7807 1.13945 18.4376C0.769471 18.0945 0.542843 17.6242 0.505 17.1211L0.5 16.9711V4.97107C0.49984 4.46649 0.690406 3.9805 1.0335 3.61052C1.37659 3.24054 1.84684 3.01391 2.35 2.97607L2.5 2.97107H4.5V1.97107C4.5 1.70585 4.60536 1.4515 4.79289 1.26396C4.98043 1.07643 5.23478 0.971069 5.5 0.971069C5.76522 0.971069 6.01957 1.07643 6.20711 1.26396C6.39464 1.4515 6.5 1.70585 6.5 1.97107V2.97107H12.5V1.97107C12.5 1.70585 12.6054 1.4515 12.7929 1.26396C12.9804 1.07643 13.2348 0.971069 13.5 0.971069ZM12.324 7.35007L8.082 11.5921L6.667 10.1781C6.4784 9.99591 6.2258 9.89512 5.9636 9.8974C5.7014 9.89967 5.45059 10.0048 5.26518 10.1903C5.07977 10.3757 4.9746 10.6265 4.97233 10.8887C4.97005 11.1509 5.07084 11.4035 5.253 11.5921L7.367 13.7071C7.4608 13.801 7.57218 13.8754 7.69478 13.9262C7.81738 13.9771 7.94879 14.0032 8.0815 14.0032C8.21421 14.0032 8.34562 13.9771 8.46822 13.9262C8.59082 13.8754 8.7022 13.801 8.796 13.7071L13.738 8.76407C13.8335 8.67182 13.9097 8.56148 13.9621 8.43947C14.0145 8.31747 14.0421 8.18625 14.0433 8.05347C14.0444 7.92069 14.0191 7.78901 13.9688 7.66612C13.9185 7.54322 13.8443 7.43157 13.7504 7.33767C13.6565 7.24378 13.5449 7.16953 13.422 7.11925C13.2991 7.06897 13.1674 7.04366 13.0346 7.04482C12.9018 7.04597 12.7706 7.07356 12.6486 7.12597C12.5266 7.17838 12.4162 7.25456 12.324 7.35007Z" fill="#166890"/>
</svg>
