<svg width="9" height="6" viewBox="0 0 9 6" fill="none" xmlns="http://www.w3.org/2000/svg">
<path d="M8.25581 0.204765C8.40032 0.341374 8.48465 0.529779 8.49028 0.728554C8.4959 0.927329 8.42236 1.1202 8.28581 1.26476L4.03581 5.76477C3.96693 5.83757 3.88416 5.89582 3.79238 5.9361C3.70061 5.97637 3.60169 5.99784 3.50148 5.99923C3.40127 6.00063 3.30179 5.98193 3.20893 5.94424C3.11606 5.90654 3.0317 5.85062 2.96081 5.77976L0.710813 3.52977C0.578333 3.38759 0.50621 3.19954 0.509638 3.00524C0.513067 2.81094 0.591779 2.62556 0.729192 2.48814C0.866605 2.35073 1.05199 2.27202 1.24629 2.26859C1.44059 2.26516 1.62864 2.33728 1.77081 2.46976L3.47581 4.17376L7.19581 0.234765C7.33242 0.0902619 7.52083 0.00592625 7.7196 0.000300543C7.91838 -0.00532516 8.11125 0.0682197 8.25581 0.204765Z" fill="#1685B9"/>
</svg>
