<svg width="14" height="14" viewBox="0 0 14 14" fill="none" xmlns="http://www.w3.org/2000/svg">
<path d="M9.82495 0.717121C10.0519 0.490099 10.3214 0.310008 10.618 0.187132C10.9146 0.0642553 11.2325 0.000999787 11.5535 0.000976569C11.8746 0.000953351 12.1925 0.0641629 12.4891 0.186996C12.7857 0.30983 13.0552 0.489882 13.2822 0.716871C13.5092 0.943861 13.6893 1.21334 13.8122 1.50993C13.9351 1.80652 13.9983 2.12441 13.9983 2.44544C13.9984 2.76648 13.9352 3.08438 13.8123 3.38098C13.6895 3.67759 13.5094 3.9471 13.2824 4.17412L12.8314 4.62462L9.37445 1.16762L9.82495 0.717121ZM8.66745 1.87512L1.17845 9.36512C0.926295 9.61711 0.752319 9.93659 0.677446 10.2851L0.0109461 13.3951C-0.00663054 13.4768 -0.00346029 13.5616 0.0201672 13.6417C0.0437946 13.7219 0.087126 13.7948 0.146202 13.8539C0.205279 13.9129 0.278217 13.9563 0.358353 13.9799C0.43849 14.0035 0.523269 14.0067 0.604946 13.9891L3.71495 13.3226C4.06348 13.2477 4.38295 13.0738 4.63495 12.8216L12.1249 5.33162L8.66745 1.87512Z" fill="#1685B9"/>
</svg>
