<svg width="46" height="57" viewBox="0 0 46 57" fill="none" xmlns="http://www.w3.org/2000/svg">
<path d="M38.75 30C40.5402 30 42.2571 30.7112 43.523 31.977C44.7888 33.2429 45.5 34.9598 45.5 36.75V39C45.5 47.8695 37.13 57 23 57C8.87 57 0.5 47.8695 0.5 39V36.75C0.5 34.9598 1.21116 33.2429 2.47703 31.977C3.7429 30.7112 5.45979 30 7.25 30H38.75ZM23 0.75C26.2821 0.75 29.4297 2.05379 31.7504 4.37455C34.0712 6.69532 35.375 9.84295 35.375 13.125C35.375 16.4071 34.0712 19.5547 31.7504 21.8754C29.4297 24.1962 26.2821 25.5 23 25.5C19.7179 25.5 16.5703 24.1962 14.2496 21.8754C11.9288 19.5547 10.625 16.4071 10.625 13.125C10.625 9.84295 11.9288 6.69532 14.2496 4.37455C16.5703 2.05379 19.7179 0.75 23 0.75Z" fill="#1685B9"/>
</svg>
