<svg width="53" height="54" viewBox="0 0 53 54" fill="none" xmlns="http://www.w3.org/2000/svg">
<path d="M14.6188 3.4411L14.6188 18.2085" stroke="#38CDA1" stroke-width="5.86239" stroke-linecap="round"/>
<path d="M38.1433 3.4411L38.1433 18.2085" stroke="#38CDA1" stroke-width="5.86239" stroke-linecap="round"/>
<path fill-rule="evenodd" clip-rule="evenodd" d="M8.79358 6.58124C3.93702 6.58124 0 10.5183 0 15.3748V44.5695C0 49.426 3.93702 53.363 8.79358 53.363H43.9679C48.8245 53.363 52.7615 49.426 52.7615 44.5694V15.3748C52.7615 10.5183 48.8245 6.58124 43.9679 6.58124H8.79358ZM35.4313 30.3574C34.4638 30.564 33.5116 29.9708 33.2628 29.0239L33.2577 29.025C33.2265 28.8812 33.191 28.7386 33.1512 28.5976C33.1176 28.4782 33.0809 28.3598 33.0412 28.2426C33.0071 28.1419 32.9709 28.042 32.9324 27.943C32.8365 27.696 32.7271 27.4548 32.6049 27.2205C32.5009 27.0211 32.3876 26.8267 32.2654 26.6379C32.1219 26.416 31.966 26.2019 31.7985 25.9966C31.6533 25.8187 31.4993 25.6474 31.337 25.4834C31.2339 25.3792 31.1274 25.278 31.0176 25.1799C30.9079 25.0819 30.7954 24.9874 30.6804 24.8966C30.4992 24.7536 30.3118 24.6198 30.1188 24.4954C29.896 24.3519 29.6658 24.221 29.4292 24.1032C29.2279 24.0029 29.0221 23.9121 28.8123 23.8311C28.5657 23.7359 28.3138 23.6542 28.0576 23.5865C27.8356 23.5278 27.6104 23.4796 27.3827 23.4423C27.2381 23.4186 27.0924 23.3992 26.946 23.3843C26.7996 23.3694 26.653 23.3591 26.5066 23.3532C26.276 23.3439 26.0457 23.3457 25.8165 23.3585C25.5519 23.3732 25.2887 23.4025 25.028 23.4461C24.8062 23.4832 24.5863 23.5307 24.3689 23.5884C24.1135 23.6562 23.8616 23.7381 23.6145 23.8338C23.4004 23.9167 23.1898 24.0101 22.9836 24.1136C22.8527 24.1794 22.7234 24.2493 22.5962 24.3233C22.4689 24.3973 22.3443 24.475 22.2223 24.5562C22.0303 24.6841 21.845 24.8209 21.6669 24.9659C21.4615 25.1333 21.2657 25.3116 21.0804 25.5001C20.9227 25.6604 20.7726 25.828 20.6306 26.0024C20.4637 26.2073 20.308 26.4216 20.1642 26.6442C20.0397 26.8371 19.9242 27.0363 19.8181 27.2413C19.7508 27.3714 19.6873 27.5039 19.6278 27.6385C19.5682 27.7732 19.513 27.9093 19.462 28.0467C19.3818 28.263 19.3122 28.4826 19.2533 28.7045C19.1854 28.9607 19.1317 29.22 19.0925 29.4814C19.059 29.7037 19.0361 29.9276 19.0236 30.1521C19.0089 30.416 19.0088 30.6808 19.0232 30.9454C19.0358 31.1747 19.0593 31.4038 19.0939 31.632C19.1159 31.7769 19.1423 31.9213 19.1733 32.0653C19.2042 32.2092 19.2394 32.3518 19.2789 32.4929C19.3411 32.7151 19.4137 32.9337 19.4965 33.1479C19.592 33.3951 19.7009 33.6365 19.8227 33.871C19.9263 34.0706 20.0392 34.2653 20.161 34.4543C20.3042 34.6764 20.4596 34.8908 20.6268 35.0965C20.7716 35.2746 20.9253 35.4462 21.0873 35.6105C21.1902 35.7149 21.2965 35.8163 21.4061 35.9145C21.5156 36.0128 21.6279 36.1075 21.7428 36.1985C21.9237 36.3418 22.1108 36.476 22.3036 36.6007C22.5261 36.7447 22.7561 36.876 22.9925 36.9943C23.1936 37.095 23.3993 37.1862 23.6089 37.2676C23.8552 37.3632 24.107 37.4454 24.3631 37.5136C24.585 37.5727 24.8101 37.6213 25.0378 37.659C25.1823 37.683 25.3279 37.7026 25.4743 37.7178C25.6207 37.733 25.7672 37.7436 25.9137 37.7498C26.1442 37.7595 26.3745 37.7581 26.6038 37.7458C26.8684 37.7316 27.1317 37.7028 27.3924 37.6596C27.6143 37.6229 27.8343 37.5759 28.0518 37.5186C28.1111 37.503 28.1703 37.4866 28.2292 37.4695L27.4846 35.1872C27.3261 34.7016 27.8213 34.2597 28.2858 34.4723L33.6739 36.9377C33.9854 37.0803 34.1088 37.4586 33.9413 37.7575L31.044 42.9261C30.7942 43.3717 30.1337 43.3069 29.9753 42.8213L29.3759 40.9843C29.2312 41.0282 29.0856 41.069 28.9393 41.1067C28.8715 41.1242 28.8034 41.1411 28.7352 41.1572C28.5767 41.1949 28.4173 41.229 28.2572 41.2595C27.9349 41.3209 27.6098 41.3678 27.2828 41.3999C27.123 41.4156 26.9628 41.4278 26.8023 41.4364C26.235 41.4669 25.6637 41.4532 25.0934 41.3941C24.523 41.335 23.961 41.2313 23.4121 41.0851C23.2567 41.0437 23.1024 40.999 22.9492 40.9508C22.6358 40.8523 22.3272 40.7398 22.0243 40.6136C21.8739 40.5509 21.7249 40.4849 21.5774 40.4155C21.2805 40.2759 20.9899 40.1228 20.7064 39.9567C20.5679 39.8755 20.4311 39.7913 20.2961 39.7039C19.8191 39.3954 19.3648 39.0486 18.938 38.6657C18.5112 38.2828 18.1173 37.8687 17.759 37.428C17.6576 37.3032 17.559 37.1763 17.4633 37.0474C17.2675 36.7835 17.0839 36.5112 16.913 36.2311C16.8281 36.092 16.7463 35.951 16.6677 35.8083C16.5095 35.5209 16.3642 35.2262 16.2324 34.9253C16.168 34.7782 16.1068 34.6297 16.0488 34.4797C15.8441 33.9498 15.6802 33.4023 15.5598 32.8417C15.4393 32.2811 15.3638 31.7146 15.3328 31.1474C15.324 30.9869 15.3188 30.8263 15.3171 30.6657C15.3137 30.3372 15.3251 30.0089 15.3513 29.6819C15.3643 29.5194 15.3809 29.3573 15.4012 29.1956C15.442 28.87 15.4976 28.5463 15.5677 28.2253C15.602 28.0684 15.6397 27.9123 15.6809 27.7569C15.8266 27.2078 16.0156 26.6684 16.2475 26.144C16.4793 25.6196 16.751 25.1168 17.0592 24.6396C17.1464 24.5045 17.2365 24.3715 17.3294 24.2406C17.5197 23.9727 17.7218 23.7137 17.9351 23.4645C18.0411 23.3406 18.1498 23.2192 18.2612 23.1003C18.4855 22.8608 18.7206 22.6314 18.9659 22.4129C19.0858 22.3061 19.2081 22.2019 19.3327 22.1003C19.7732 21.7416 20.243 21.4162 20.7387 21.128C21.2344 20.8398 21.7497 20.5926 22.2794 20.3874C22.4293 20.3293 22.5804 20.2746 22.7325 20.2233C23.0439 20.1183 23.3595 20.0275 23.6786 19.9511C23.8371 19.9131 23.9964 19.8787 24.1564 19.8479C24.4786 19.7859 24.8036 19.7384 25.1306 19.7057C25.2903 19.6897 25.4505 19.6772 25.611 19.6682C26.1782 19.6367 26.7496 19.6493 27.32 19.7074C27.8905 19.7654 28.4527 19.868 29.0019 20.0132C29.1573 20.0542 29.3117 20.0987 29.465 20.1466C29.7786 20.2445 30.0875 20.3564 30.3905 20.4821C30.5411 20.5445 30.6902 20.6102 30.8378 20.6793C31.1349 20.8184 31.4259 20.9709 31.7097 21.1365C31.8484 21.2174 31.9853 21.3014 32.1205 21.3885C32.598 21.6961 33.053 22.0421 33.4805 22.4241C33.908 22.8062 34.3027 23.2196 34.6619 23.6597C34.7635 23.7842 34.8623 23.9109 34.9582 24.0397C35.1545 24.3032 35.3387 24.5752 35.5101 24.8549C35.5953 24.9939 35.6773 25.1347 35.7562 25.2773C35.7901 25.3386 35.8234 25.4003 35.8561 25.4623C35.9766 25.6904 36.0891 25.923 36.1932 26.1595C36.2579 26.3064 36.3194 26.4548 36.3776 26.6047C36.4067 26.6796 36.4349 26.7549 36.4624 26.8305C36.5037 26.9442 36.5432 27.0587 36.5807 27.174C36.6947 27.5236 36.7912 27.88 36.8697 28.2418L36.864 28.243C37.0306 29.213 36.4026 30.1499 35.4313 30.3574Z" fill="#38CDA1"/>
</svg>
